<svg width="20" height="20" fill="none" xmlns="http://www.w3.org/2000/svg"><path d="M20 10c0 5.523-4.477 10-10 10S0 15.523 0 10 4.477 0 10 0s10 4.477 10 10zM2.019 11.527l1.24.25a.935.935 0 00.846-.257l.602-.602c.45-.484 1.215-.328 1.5.246l.363.723c.153.375.57.578.989.578.593 0 1.02-.535.847-1.106l-.23-.777a.936.936 0 01.898-1.207h.09a1.61 1.61 0 001.3-.695l.419-.63a.94.94 0 00-.031-1.081l-.63-.84a.938.938 0 01.524-1.473l.664-.199a.824.824 0 00.645-.527l.636-1.598a8.145 8.145 0 00-2.726-.457C5.512 1.875 1.84 5.512 1.84 10c0 .523.084 1.035.179 1.527zm15.575.207l-.617.176a.62.62 0 01-.684-.262l-.078-.12c-.235-.368-.64-.626-1.078-.626-.434 0-.875.258-1.078.625l-.239.371c-.054.086-.129.16-.218.176l-1.45.82c-.671.395-.96 1.266-.664 2.004l.25.485c.336.75 1.2 1.113 1.938.824l.133-.07a1.358 1.358 0 011.171.195l.06.043a8.137 8.137 0 002.905-4.668.974.974 0 00-.351.027zM6.098 14.355l1.25.313a.62.62 0 00.757-.453.62.62 0 00-.453-.758l-1.25-.313a.62.62 0 00-.757.454.62.62 0 00.453.757zm3.14-1.539a.62.62 0 00.453.758.62.62 0 00.758-.453l.313-1.25a.62.62 0 00-.453-.758.62.62 0 00-.758.453l-.313 1.25zm3.328-8.097l-.625 1.25a.624.624 0 00.278.84.624.624 0 00.84-.278l.625-1.25a.624.624 0 00-.278-.84.624.624 0 00-.84.278z" fill="#333"/></svg>